Coordinates
version=1
nRows=6
nColumns=63
inDegrees=yes

Units are S.I. units (second, meters, Newtons, ...)
If the header above contains a line with 'inDegrees', this indicates whether rotational values are in degrees (yes) or radians (no).

endheader
time	pelvis_tilt	pelvis_list	pelvis_rotation	pelvis_tx	pelvis_ty	pelvis_tz	hip_flexion_r	hip_adduction_r	hip_rotation_r	knee_angle_r	knee_angle_r_beta	ankle_angle_r	subtalar_angle_r	mtp_angle_r	hip_flexion_l	hip_adduction_l	hip_rotation_l	knee_angle_l	knee_angle_l_beta	ankle_angle_l	subtalar_angle_l	mtp_angle_l	L5_S1_Flex_Ext	L5_S1_Lat_Bending	L5_S1_axial_rotation	L4_L5_Flex_Ext	L4_L5_Lat_Bending	L4_L5_axial_rotation	L3_L4_Flex_Ext	L3_L4_Lat_Bending	L3_L4_axial_rotation	L2_L3_Flex_Ext	L2_L3_Lat_Bending	L2_L3_axial_rotation	L1_L2_Flex_Ext	L1_L2_Lat_Bending	L1_L2_axial_rotation	L1_T12_Flex_Ext	L1_T12_Lat_Bending	L1_T12_axial_rotation	Abs_r3	Abs_r2	Abs_r1	Abs_t1	Abs_t2	neck_flexion	neck_bending	neck_rotation	arm_flex_r	arm_add_r	arm_rot_r	elbow_flex_r	pro_sup_r	wrist_flex_r	wrist_dev_r	arm_flex_l	arm_add_l	arm_rot_l	elbow_flex_l	pro_sup_l	wrist_flex_l	wrist_dev_l
4.744186	3.568340	-4.041592	82.284318	0.177680	0.848379	0.589154	5.853358	-2.497740	-17.658344	13.323271	0.232535	34.120742	18.008731	0.000000	-0.164817	0.720479	4.278131	0.337953	0.005898	25.447845	-11.093526	0.000000	0.022061	0.147749	-0.924221	0.040970	0.196506	-0.981985	0.036244	0.359237	-0.981985	0.025214	0.359237	-0.808694	0.020486	0.301290	-0.750930	0.012606	0.228863	-0.693166	0.157581	1.671367	-5.140241	0.000000	0.000000	27.549508	0.093327	-15.177124	11.351925	-14.155526	130.162460	10.570769	5.133984	-6.423782	-7.271631	12.854456	-7.050539	162.955399	2.677611	7.377621	-7.057965	-3.383025
4.767442	4.217400	-3.837115	83.671420	0.175148	0.849066	0.588775	4.925506	-1.917096	-18.769056	12.433890	0.217012	33.424078	17.926428	0.000000	-0.363895	0.123940	5.361470	0.319516	0.005577	25.355748	-10.639111	0.000000	0.031452	0.208999	-1.211247	0.058410	0.277969	-1.286950	0.051673	0.508160	-1.286950	0.035947	0.508160	-1.059841	0.029207	0.426191	-0.984138	0.017972	0.323739	-0.908435	0.224662	2.364237	-6.736594	0.000000	0.000000	27.405950	0.746127	-14.283804	12.579953	-14.022525	129.756815	10.689002	5.119032	-5.915616	-6.370894	13.836386	-6.374903	163.450163	2.042575	9.695034	-7.967670	-3.629707
4.790698	4.896278	-3.649174	85.042316	0.172685	0.849839	0.588369	4.066398	-1.295721	-19.875700	11.640515	0.203165	32.719371	17.857424	0.000000	-0.539957	-0.510969	6.335246	0.305642	0.005334	25.229859	-10.038633	0.000000	0.038100	0.277448	-1.496456	0.070755	0.369006	-1.589984	0.062594	0.674588	-1.589984	0.043544	0.674588	-1.309399	0.035379	0.565772	-1.215870	0.021770	0.429767	-1.122342	0.272142	3.138550	-8.322837	0.000000	0.000000	27.269675	1.403273	-13.070790	13.782689	-13.882136	128.787177	10.813985	5.116658	-5.383407	-5.565729	14.795696	-5.634495	164.593583	1.509204	12.106715	-8.879539	-3.718829
4.813953	5.561092	-3.452320	86.321707	0.170399	0.850655	0.587998	3.298466	-0.677851	-20.898052	10.988186	0.191780	32.045261	17.775530	0.000000	-0.708437	-1.139666	7.088827	0.296289	0.005171	25.111590	-9.239180	0.000000	0.037828	0.346879	-1.764066	0.070250	0.461349	-1.874321	0.062147	0.843401	-1.874321	0.043234	0.843401	-1.543558	0.035127	0.707355	-1.433304	0.021615	0.537315	-1.323050	0.270201	3.923961	-9.811208	0.000000	0.000000	27.153628	2.020007	-11.623880	14.914390	-13.725067	127.306027	10.959790	5.186393	-4.902898	-4.936976	15.699372	-4.869211	166.262749	1.046472	14.289471	-9.634308	-3.690405
4.837209	6.172010	-3.268454	87.496438	0.168336	0.851417	0.587725	2.675842	-0.109057	-21.866985	10.504071	0.183331	31.451363	17.709911	0.000000	-0.830098	-1.725686	7.666360	0.291140	0.005081	25.004859	-8.305004	0.000000	0.034231	0.412043	-2.014444	0.063571	0.548018	-2.140347	0.056239	1.001842	-2.140347	0.039123	1.001842	-1.762639	0.031787	0.840239	-1.636736	0.019560	0.638255	-1.510833	0.244512	4.661116	-11.203735	0.000000	0.000000	27.066354	2.603389	-9.973933	15.938731	-13.526589	125.496599	11.113504	5.309945	-4.529071	-4.549422	16.473075	-4.107854	168.284164	0.576222	15.861698	-10.129893	-3.591256
4.860465	6.725510	-3.110345	88.554117	0.166542	0.852052	0.587560	2.223281	0.407770	-22.782819	10.204225	0.178097	30.974746	17.664899	0.000000	-0.890590	-2.270316	8.134088	0.289438	0.005052	24.936353	-7.352429	0.000000	0.030218	0.471395	-2.247106	0.056118	0.626955	-2.387550	0.049646	1.146150	-2.387550	0.034536	1.146150	-1.966218	0.028061	0.961269	-1.825774	0.017267	0.730191	-1.685330	0.215846	5.332515	-12.497731	0.000000	0.000000	27.016535	3.150831	-8.181063	16.835169	-13.279930	123.611802	11.265416	5.436874	-4.294883	-4.428866	17.060572	-3.380510	169.801196	0.149931	16.920476	-10.349514	-3.446762
